<?xml version="1.0" encoding="utf-8"?>
<!-- Generator: Adobe Illustrator 21.0.0, SVG Export Plug-In . SVG Version: 6.00 Build 0)  -->
<svg version="1.1" id="Layer_1" xmlns="http://www.w3.org/2000/svg" xmlns:xlink="http://www.w3.org/1999/xlink" x="0px" y="0px"
	 viewBox="0 0 165 165" style="enable-background:new 0 0 165 165;" xml:space="preserve">
<style type="text/css">
	.st0{fill:#FFFFFF;}
</style>
<g>
	<path class="st0" d="M130,18.1c-4.4-3.2-9.1-6-14.1-8.3c-10.2-4.7-21.5-7.3-33.4-7.3c-25,0-47.3,11.5-62,29.5
		C14,39.9,9,49.2,5.9,59.3c-0.6,2.1-1.2,4.3-1.7,6.4c-1.2,5.4-1.8,11-1.8,16.7c0,10.8,2.1,21.1,6,30.5c4,9.7,9.8,18.4,17.1,25.8
		c14.5,14.7,34.6,23.8,56.9,23.8c1.6,0,3.2-0.1,4.8-0.1c2.1-0.1,4.2-0.3,6.2-0.6c21.5-3,40.2-14.5,52.7-31
		c6.6-8.7,11.5-18.8,14-29.8c1.4-5.9,2.1-12.1,2.1-18.4C162.5,56.1,149.7,32.7,130,18.1z M136.4,123.5
		c-10.7,14.1-26.8,23.8-45.1,26.2c-2.9,0.4-5.8,0.6-8.8,0.6c-28.4,0-52.8-17.6-62.8-42.4c-3.2-7.8-4.9-16.4-4.9-25.4
		c0-4.9,0.5-9.7,1.5-14.3c0.9-4,2.1-7.9,3.6-11.7c2.9-6.9,6.8-13.2,11.7-18.7C44,23.7,62.2,14.7,82.5,14.7c7.2,0,14.2,1.2,20.7,3.3
		c6.9,2.2,13.2,5.5,19,9.6c17,12.3,28.1,32.3,28.1,54.9c0,5.3-0.6,10.5-1.8,15.5C146.2,107.4,142.1,116,136.4,123.5z"/>
	<g>
		<path class="st0" d="M108.6,71.1c0-6.7-3.6-11.4-9.3-11.4c-1.5,0-2.8,0.2-4,0.7c-2.6,1-4.2,3.1-5,6.1c-0.4,1.4-0.5,2.9-0.5,4.7
			c0,6.9,3.6,11.4,9.5,11.4C105.6,82.5,108.6,78.1,108.6,71.1z"/>
		<path class="st0" d="M121.3,28.7c-5.9-4.3-12.5-7.6-19.6-9.7c-6.1-1.9-12.6-2.9-19.3-2.9c-19.8,0-37.5,8.7-49.7,22.4
			c-4.6,5.2-8.5,11.2-11.3,17.7c-1.7,3.9-3,8-3.9,12.3c-1,4.5-1.5,9.2-1.5,14c0,8.8,1.7,17.1,4.8,24.8c9.8,24.4,33.7,41.6,61.6,41.6
			c2.9,0,5.7-0.2,8.5-0.6c18-2.3,33.8-11.9,44.3-25.7c5.6-7.3,9.6-15.8,11.8-25c1.1-4.9,1.8-10,1.8-15.2
			C148.9,60.4,138,40.8,121.3,28.7z M69.3,98.2c-4,1.9-8.2,2.8-11.5,2.8c-5.9,0-9.4-2-11-5.6c-0.8-1.7-1.1-3.7-1.1-6
			c0-2.9,0.7-8.8,1.6-14.9c0.5-3.6,1.1-7.3,1.7-10.3h-7.1c0.4-3.6,1.6-6.5,2.7-8.2c1.6-0.7,3.7-1.5,5.5-1.8l1.1-3.9l0.5-1.8l1.2-4
			c2.3-1.2,7.8-2.8,11.2-2.8l-0.2,1.7l-1.4,11h12.4c0.2,2.7,0.2,2.2,0.2,3.2c0,2.1-0.2,4.8-0.5,6.6h-9.2h-4L60,77.1l-0.7,7
			c-0.3,2.4-0.1,4.1,0.9,5.1c0.7,0.8,1.9,1.2,3.7,1.2c2.7,0,5.4-0.6,8.5-1.6C72.4,91.4,71.1,95.9,69.3,98.2z M90.5,89.8
			c0,0.1,0,0.3,0,0.4c0,2.3,2.1,3.4,5.8,3.8c2,0.3,4.5,0.3,7.5,0.3c10.6,0,18.8,2.3,18.8,12.1c0,2.2-0.4,4.2-1.2,5.9
			c-3.1,7-11.9,10.5-21.8,10.5c-5.1,0-10-1-13.8-3c-4.3-2.3-7.2-5.8-7.2-10.7c0-3.3,1.6-6,3.7-7.7c1.2-1,2.6-1.7,3.9-2.1v-0.5
			c-1.8-0.7-3.8-3.2-3.8-6.5c0-2.3,1.1-4.6,3.1-6.3c0.7-0.6,1.5-1.1,2.5-1.5v-0.5c-0.6-0.4-1.1-0.8-1.6-1.3c-1.8-1.7-3.1-4-3.8-6.9
			c-0.4-1.5-0.6-3.1-0.6-4.8c0-10.2,7.5-16.4,17.5-16.4c0.2,0,0.4,0,0.6,0c3.9,0.1,7.2,1.1,9.7,2.5c1.6-0.9,5.5-1.7,8.9-1.7
			c1.5,0,2.8,0.6,3.9,1c0.4,1.3,0.7,4.1,0.7,6h-9.1c1.6,1.9,2.7,5.1,2.7,9.1c0,8.6-4.7,14.1-12.7,15.6c-1.5,0.3-3.1,0.5-4.8,0.5
			c-2.6,0-5.3-0.4-7.4-1.1C91.1,87.3,90.6,88.6,90.5,89.8z"/>
		<path class="st0" d="M86.6,108c0,6.4,7.4,9.6,14.2,9.6c7.2,0,14-3.2,14-9.4c0-0.2,0-0.4,0-0.6c-0.2-3.4-2.6-5.4-8.3-6.1
			c-1.3-0.2-2.9-0.2-4.6-0.2c-3.3,0-7.1-0.2-10.4-0.9C88.1,102,86.6,104.9,86.6,108z"/>
	</g>
</g>
</svg>
